<svg width="763" height="616" viewBox="0 0 763 616" fill="none" xmlns="http://www.w3.org/2000/svg">
<rect x="5" y="85" width="256.754" height="308.663" rx="128.377" fill="#488BFF" stroke="#1E1E1E" stroke-width="10"/>
<rect x="141.975" y="161.368" width="484.576" height="132.749" rx="66.3747" transform="rotate(30 141.975 161.368)" fill="#488BFF" stroke="#1E1E1E" stroke-width="10"/>
<rect x="323.221" y="235.959" width="305.779" height="374.991" rx="152.89" fill="#488BFF" stroke="#1E1E1E" stroke-width="10"/>
<path d="M679.537 245.118V431.118C679.537 444.925 668.344 456.118 654.537 456.118H546.537C532.73 456.118 521.537 444.925 521.537 431.118V245.118H679.537ZM580.345 15.2598C590.331 1.58003 610.743 1.5799 620.729 15.2598L752.213 195.378C764.272 211.897 752.473 235.118 732.021 235.118H469.054C448.601 235.118 436.803 211.897 448.861 195.378L580.345 15.2598Z" fill="#FFA74F" stroke="#1E1E1E" stroke-width="10"/>
</svg>
